M48
; DRILL file {KiCad 9.0.0} date 2025-03-27T12:42:48+0100
; FORMAT={-:-/ absolute / metric / decimal}
; #@! TF.CreationDate,2025-03-27T12:42:48+01:00
; #@! TF.GenerationSoftware,Kicad,Pcbnew,9.0.0
; #@! TF.FileFunction,MixedPlating,1,2
FMAT,2
METRIC
; #@! TA.AperFunction,Plated,PTH,ComponentDrill
T1C0.750
; #@! TA.AperFunction,Plated,PTH,ComponentDrill
T2C0.800
; #@! TA.AperFunction,Plated,PTH,ComponentDrill
T3C0.900
; #@! TA.AperFunction,Plated,PTH,ComponentDrill
T4C1.000
; #@! TA.AperFunction,Plated,PTH,ComponentDrill
T5C1.100
; #@! TA.AperFunction,Plated,PTH,ComponentDrill
T6C1.110
; #@! TA.AperFunction,Plated,PTH,ComponentDrill
T7C1.300
; #@! TA.AperFunction,Plated,PTH,ComponentDrill
T8C2.540
; #@! TA.AperFunction,Plated,PTH,ComponentDrill
T9C3.200
; #@! TA.AperFunction,NonPlated,NPTH,ComponentDrill
T10C3.200
%
G90
G05
T1
X129.54Y-85.725
X130.81Y-85.725
X132.08Y-85.725
T2
X80.844Y-45.402
X80.924Y-95.567
X85.844Y-45.402
X85.924Y-95.567
X102.434Y-44.767
X102.434Y-57.467
X102.434Y-84.138
X102.434Y-96.837
X111.324Y-54.332
X111.324Y-59.332
X111.324Y-82.272
X111.324Y-87.272
X118.11Y-70.485
X118.11Y-73.025
X118.11Y-75.565
X118.11Y-78.105
X118.15Y-83.185
X120.69Y-66.04
X123.15Y-83.185
X125.69Y-66.04
X125.73Y-70.485
X125.73Y-73.025
X125.73Y-75.565
X125.73Y-78.105
X128.905Y-70.485
X128.905Y-80.645
X132.715Y-70.485
X132.715Y-80.645
X135.89Y-85.725
X136.525Y-70.485
X136.525Y-80.645
X140.335Y-57.825
X140.335Y-62.825
X140.335Y-73.065
X140.335Y-78.065
X143.51Y-57.785
X143.51Y-65.405
X143.51Y-73.025
X143.51Y-80.645
X146.05Y-57.785
X146.05Y-65.405
X146.05Y-73.025
X146.05Y-80.645
X146.05Y-85.725
X148.59Y-57.785
X148.59Y-65.405
X148.59Y-73.025
X148.59Y-80.645
X151.13Y-57.785
X151.13Y-65.405
X151.13Y-73.025
X151.13Y-80.645
T3
X110.49Y-93.662
X110.689Y-47.942
X113.03Y-93.662
X113.229Y-47.942
T4
X80.924Y-50.562
X80.924Y-55.562
X81.004Y-85.407
X81.004Y-90.407
X85.924Y-50.562
X85.924Y-55.562
X86.004Y-85.407
X86.004Y-90.407
X91.639Y-49.212
X91.639Y-92.392
X96.639Y-49.212
X96.639Y-92.392
X105.609Y-61.82
X105.609Y-66.82
X105.609Y-74.612
X105.609Y-79.612
X136.525Y-62.87
X136.525Y-65.41
X192.61Y-87.63
X192.61Y-90.17
X196.42Y-46.995
X196.42Y-49.535
X197.69Y-87.63
X197.69Y-90.17
X200.23Y-46.995
X200.23Y-49.535
X202.77Y-87.63
X202.77Y-90.17
X204.04Y-46.995
X204.04Y-49.535
X207.85Y-46.995
X207.85Y-49.535
X207.85Y-87.63
X207.85Y-90.17
T5
X91.639Y-61.277
X91.639Y-63.817
X91.639Y-66.358
X91.639Y-75.248
X91.639Y-77.787
X91.639Y-80.328
X97.989Y-57.467
X97.989Y-67.627
X97.989Y-73.977
X97.989Y-84.138
X106.244Y-44.767
X106.244Y-54.927
X106.244Y-86.677
X106.244Y-96.837
T6
X158.75Y-52.07
X158.75Y-54.61
X158.75Y-57.15
X158.75Y-59.69
X158.75Y-62.23
X158.75Y-64.77
X158.75Y-67.31
X158.75Y-69.85
X158.75Y-72.39
X158.75Y-74.93
X158.75Y-77.47
X158.75Y-80.01
X158.75Y-82.55
X158.75Y-85.09
X158.75Y-87.63
X186.69Y-52.07
X186.69Y-54.61
X186.69Y-57.15
X186.69Y-59.69
X186.69Y-62.23
X186.69Y-64.77
X186.69Y-67.31
X186.69Y-69.85
X186.69Y-72.39
X186.69Y-74.93
X186.69Y-77.47
X186.69Y-80.01
X186.69Y-82.55
X186.69Y-85.09
X186.69Y-87.63
X205.945Y-55.88
X205.945Y-58.42
X205.945Y-60.96
X205.945Y-63.5
X205.945Y-66.04
X205.945Y-68.58
X205.945Y-71.12
X205.945Y-73.66
X205.945Y-76.2
X205.945Y-78.74
T7
X83.384Y-62.992
X83.384Y-67.992
X83.384Y-72.992
X83.384Y-77.992
T8
X193.499Y-55.88
X193.499Y-78.74
T9
X160.02Y-44.45
X160.02Y-96.52
X185.42Y-44.45
X185.42Y-96.52
T10
X71.755Y-45.085
X71.755Y-96.52
X214.63Y-45.085
X214.63Y-96.52
M30
